<svg width="24" height="25" viewBox="0 0 24 25" fill="none" xmlns="http://www.w3.org/2000/svg">
<path d="M9.3999 12.3501C9.3999 11.2501 10.2999 10.3501 11.3999 10.3501C12.4999 10.3501 13.3999 11.2501 13.3999 12.3501C13.3999 13.4501 12.4999 14.3501 11.3999 14.3501C10.2999 14.3501 9.3999 13.4501 9.3999 12.3501ZM7.1999 18.0501L5.6999 16.6501L7.1999 15.1501C6.6999 14.3501 6.3999 13.3501 6.3999 12.3501C6.3999 11.3501 6.6999 10.3501 7.1999 9.6501L5.6999 8.1501L7.1999 6.6501L8.5999 8.1501C9.3999 7.6501 10.3999 7.3501 11.3999 7.3501C12.3999 7.3501 13.3999 7.6501 14.1999 8.1501L15.6999 6.6501L17.0999 8.0501L15.5999 9.5501C16.0999 10.3501 16.3999 11.3501 16.3999 12.3501C16.3999 13.3501 16.0999 14.3501 15.5999 15.1501L17.0999 16.6501L15.6999 18.0501L14.1999 16.5501C13.3999 17.0501 12.3999 17.3501 11.3999 17.3501C10.3999 17.3501 9.3999 17.0501 8.6999 16.5501L7.1999 18.0501ZM11.3999 9.3501C9.6999 9.3501 8.3999 10.6501 8.3999 12.3501C8.3999 14.0501 9.6999 15.3501 11.3999 15.3501C13.0999 15.3501 14.3999 14.0501 14.3999 12.3501C14.3999 10.6501 13.0999 9.3501 11.3999 9.3501ZM19.3999 2.3501C20.4999 2.3501 21.3999 3.2501 21.3999 4.3501V20.3501C21.3999 21.4501 20.4999 22.3501 19.3999 22.3501H18.3999V23.3501H14.3999V22.3501H8.3999V23.3501H4.3999V22.3501H3.3999C2.2999 22.3501 1.3999 21.4501 1.3999 20.3501V4.3501C1.3999 3.2501 2.2999 2.3501 3.3999 2.3501H19.3999ZM19.3999 20.3501V4.3501H3.3999V20.3501H19.3999Z" fill="#C22A1D"/>
</svg>
