<svg width="24" height="25" viewBox="0 0 24 25" fill="none" xmlns="http://www.w3.org/2000/svg">
<g clip-path="url(#clip0_226_3151)">
<path d="M13.6553 24.3306H3.72426C2.81392 24.3306 2.06909 23.5858 2.06909 22.6754V8.60645H3.72426V22.6754H13.6553V24.3306Z" fill="#C22A1D"/>
<path d="M16.9656 21.0203H7.03457C6.12422 21.0203 5.37939 20.2755 5.37939 19.3651V5.29614H7.03457V19.3651H16.9656V21.0203Z" fill="#C22A1D"/>
<path d="M12 11.9167H18.6207V13.5719H12V11.9167Z" fill="#C22A1D"/>
<path d="M21.6828 6.37195L15.8897 0.578842C15.7242 0.413325 15.5587 0.330566 15.3104 0.330566H10.3449C9.43452 0.330566 8.6897 1.07539 8.6897 1.98574V16.0547C8.6897 16.965 9.43452 17.7099 10.3449 17.7099H20.2759C21.1862 17.7099 21.9311 16.965 21.9311 16.0547V6.95126C21.9311 6.70298 21.8483 6.53746 21.6828 6.37195ZM15.3104 2.31677L19.9449 6.95126H15.3104V2.31677ZM20.2759 16.0547H10.3449V1.98574H13.6552V6.95126C13.6552 7.8616 14.4 8.60643 15.3104 8.60643H20.2759V16.0547Z" fill="#C22A1D"/>
</g>
<defs>
<clipPath id="clip0_226_3151">
<rect width="24" height="24" fill="white" transform="translate(0 0.330566)"/>
</clipPath>
</defs>
</svg>
