<svg width="19" height="20" viewBox="0 0 19 20" fill="none" xmlns="http://www.w3.org/2000/svg">
<g clip-path="url(#clip0_226_3137)">
<path fill-rule="evenodd" clip-rule="evenodd" d="M5.54171 3.20557C6.24381 3.20566 6.926 3.43897 7.48112 3.86885C8.03623 4.29873 8.43283 4.90082 8.60862 5.58057H25.0417V7.1639H8.60862C8.41409 7.90845 7.95521 8.55675 7.31767 8.98774C6.68014 9.41873 5.90753 9.60295 5.14412 9.50599C4.3807 9.40904 3.67867 9.03754 3.1691 8.46087C2.65954 7.8842 2.37729 7.14178 2.37504 6.37223C2.37504 5.53238 2.70867 4.72693 3.30254 4.13306C3.8964 3.5392 4.70186 3.20557 5.54171 3.20557ZM5.54171 7.95557C5.96163 7.95557 6.36436 7.78875 6.66129 7.49182C6.95823 7.19489 7.12504 6.79216 7.12504 6.37223C7.12504 5.95231 6.95823 5.54958 6.66129 5.25265C6.36436 4.95571 5.96163 4.7889 5.54171 4.7889C5.12178 4.7889 4.71905 4.95571 4.42212 5.25265C4.12519 5.54958 3.95837 5.95231 3.95837 6.37223C3.95837 6.79216 4.12519 7.19489 4.42212 7.49182C4.71905 7.78875 5.12178 7.95557 5.54171 7.95557ZM13.4584 16.6639C12.7563 16.6638 12.0741 16.4305 11.519 16.0006C10.9638 15.5707 10.5672 14.9686 10.3915 14.2889H-6.04163V12.7056H10.3915C10.586 11.961 11.0449 11.3127 11.6824 10.8817C12.3199 10.4507 13.0926 10.2665 13.856 10.3635C14.6194 10.4604 15.3214 10.8319 15.831 11.4086C16.3405 11.9853 16.6228 12.7277 16.625 13.4972C16.625 14.3371 16.2914 15.1425 15.6975 15.7364C15.1037 16.3303 14.2982 16.6639 13.4584 16.6639ZM13.4584 15.0806C13.8783 15.0806 14.281 14.9138 14.578 14.6168C14.8749 14.3199 15.0417 13.9172 15.0417 13.4972C15.0417 13.0773 14.8749 12.6746 14.578 12.3776C14.281 12.0807 13.8783 11.9139 13.4584 11.9139C13.0384 11.9139 12.6357 12.0807 12.3388 12.3776C12.0419 12.6746 11.875 13.0773 11.875 13.4972C11.875 13.9172 12.0419 14.3199 12.3388 14.6168C12.6357 14.9138 13.0384 15.0806 13.4584 15.0806Z" fill="#C22A1D"/>
</g>
<defs>
<clipPath id="clip0_226_3137">
<rect width="19" height="19" fill="white" transform="translate(0 0.830566)"/>
</clipPath>
</defs>
</svg>
