<svg width="24" height="23" viewBox="0 0 24 23" fill="none" xmlns="http://www.w3.org/2000/svg">
<path d="M11.5355 6.38686C12.9006 6.38686 14.0073 5.28016 14.0073 3.91499C14.0073 2.54981 12.9006 1.44312 11.5355 1.44312C10.1703 1.44312 9.0636 2.54981 9.0636 3.91499C9.0636 5.28016 10.1703 6.38686 11.5355 6.38686Z" stroke="#C22A1D" stroke-width="1.64791" stroke-linecap="round" stroke-linejoin="round"/>
<path d="M3.29585 21.2179C4.66102 21.2179 5.76772 20.1112 5.76772 18.746C5.76772 17.3809 4.66102 16.2742 3.29585 16.2742C1.93067 16.2742 0.823975 17.3809 0.823975 18.746C0.823975 20.1112 1.93067 21.2179 3.29585 21.2179Z" stroke="#C22A1D" stroke-width="1.64791" stroke-linecap="round" stroke-linejoin="round"/>
<path d="M11.5355 21.2179C12.9006 21.2179 14.0073 20.1112 14.0073 18.746C14.0073 17.3809 12.9006 16.2742 11.5355 16.2742C10.1703 16.2742 9.0636 17.3809 9.0636 18.746C9.0636 20.1112 10.1703 21.2179 11.5355 21.2179Z" stroke="#C22A1D" stroke-width="1.64791" stroke-linecap="round" stroke-linejoin="round"/>
<path d="M19.775 21.2179C21.1401 21.2179 22.2468 20.1112 22.2468 18.746C22.2468 17.3809 21.1401 16.2742 19.775 16.2742C18.4098 16.2742 17.3031 17.3809 17.3031 18.746C17.3031 20.1112 18.4098 21.2179 19.775 21.2179Z" stroke="#C22A1D" stroke-width="1.64791" stroke-linecap="round" stroke-linejoin="round"/>
<path d="M3.2959 16.2744V12.9786C3.2959 12.5416 3.46952 12.1224 3.77856 11.8134C4.08761 11.5043 4.50676 11.3307 4.94381 11.3307H18.1271C18.5642 11.3307 18.9833 11.5043 19.2924 11.8134C19.6014 12.1224 19.775 12.5416 19.775 12.9786V16.2744M11.5355 6.38696V16.2744" stroke="#C22A1D" stroke-width="1.64791" stroke-linecap="round" stroke-linejoin="round"/>
</svg>
