<svg width="28" height="29" viewBox="0 0 28 29" fill="none" xmlns="http://www.w3.org/2000/svg">
<g clip-path="url(#clip0_226_3116)">
<path d="M3.7157 4.03076V22.4245" stroke="#C22A1D" stroke-width="1.99623" stroke-linecap="round" stroke-linejoin="round"/>
<path d="M10.4106 4.03076V22.4245" stroke="#C22A1D" stroke-width="1.99623" stroke-linecap="round" stroke-linejoin="round"/>
<path d="M17.1056 4.03076V22.4245" stroke="#C22A1D" stroke-width="1.99623" stroke-linecap="round" stroke-linejoin="round"/>
<path d="M23.8005 4.03076V22.4245" stroke="#C22A1D" stroke-width="1.99623" stroke-linecap="round" stroke-linejoin="round"/>
<path d="M3.71576 20.892C4.95419 20.892 5.95813 19.888 5.95813 18.6496C5.95813 17.4112 4.95419 16.4072 3.71576 16.4072C2.47733 16.4072 1.47339 17.4112 1.47339 18.6496C1.47339 19.888 2.47733 20.892 3.71576 20.892Z" fill="white" stroke="#C22A1D" stroke-width="1.99623" stroke-linecap="round" stroke-linejoin="round"/>
<path d="M10.4107 17.8929C11.6491 17.8929 12.6531 16.889 12.6531 15.6506C12.6531 14.4121 11.6491 13.4082 10.4107 13.4082C9.17228 13.4082 8.16833 14.4121 8.16833 15.6506C8.16833 16.889 9.17228 17.8929 10.4107 17.8929Z" fill="white" stroke="#C22A1D" stroke-width="1.99623" stroke-linecap="round" stroke-linejoin="round"/>
<path d="M23.8006 11.4733C25.039 11.4733 26.043 10.4693 26.043 9.2309C26.043 7.99247 25.039 6.98853 23.8006 6.98853C22.5622 6.98853 21.5582 7.99247 21.5582 9.2309C21.5582 10.4693 22.5622 11.4733 23.8006 11.4733Z" fill="white" stroke="#C22A1D" stroke-width="1.99623" stroke-linecap="round" stroke-linejoin="round"/>
<path d="M17.1055 15.1073C18.344 15.1073 19.3479 14.1034 19.3479 12.8649C19.3479 11.6265 18.344 10.6226 17.1055 10.6226C15.8671 10.6226 14.8632 11.6265 14.8632 12.8649C14.8632 14.1034 15.8671 15.1073 17.1055 15.1073Z" fill="white" stroke="#C22A1D" stroke-width="1.99623" stroke-linecap="round" stroke-linejoin="round"/>
<path d="M26.9389 15.9817L27.2502 15.1159L26.3318 15.1723L22.4308 15.412L21.2101 15.487L22.0096 16.4125L22.3464 16.8025C21.8407 17.1603 21.1795 17.6094 20.3822 18.1109C18.3687 19.3776 15.5036 20.9685 12.096 22.271C11.328 22.5645 10.9434 23.4251 11.2369 24.193C11.5305 24.961 12.391 25.3456 13.159 25.0521C16.7936 23.6628 19.8351 21.9726 21.9676 20.631C22.8771 20.0589 23.6242 19.5483 24.1846 19.1487L24.6808 19.67L25.3575 20.381L25.6895 19.4573L26.9389 15.9817Z" fill="#C22A1D" stroke="white" stroke-width="1.21137"/>
</g>
<defs>
<clipPath id="clip0_226_3116">
<rect width="27.9473" height="27.9473" fill="white" transform="translate(0 0.356934)"/>
</clipPath>
</defs>
</svg>
