<svg width="25" height="26" viewBox="0 0 25 26" fill="none" xmlns="http://www.w3.org/2000/svg">
<path fill-rule="evenodd" clip-rule="evenodd" d="M13.75 20.8308C14.413 20.8308 15.0489 21.0942 15.5178 21.563C15.9866 22.0319 16.25 22.6678 16.25 23.3308C16.25 23.9939 15.9866 24.6297 15.5178 25.0986C15.0489 25.5674 14.413 25.8308 13.75 25.8308C13.087 25.8308 12.4511 25.5674 11.9822 25.0986C11.5134 24.6297 11.25 23.9939 11.25 23.3308C11.25 22.6678 11.5134 22.0319 11.9822 21.563C12.4511 21.0942 13.087 20.8308 13.75 20.8308ZM5.92625 17.0808C6.75505 17.0808 7.54991 17.4101 8.13596 17.9961C8.72201 18.5822 9.05125 19.377 9.05125 20.2058C9.05125 21.0346 8.72201 21.8295 8.13596 22.4155C7.54991 23.0016 6.75505 23.3308 5.92625 23.3308C5.09745 23.3308 4.30259 23.0016 3.71654 22.4155C3.13049 21.8295 2.80125 21.0346 2.80125 20.2058C2.80125 19.377 3.13049 18.5822 3.71654 17.9961C4.30259 17.4101 5.09745 17.0808 5.92625 17.0808ZM20.3988 17.7058C21.0618 17.7058 21.6977 17.9692 22.1665 18.438C22.6354 18.9069 22.8988 19.5428 22.8988 20.2058C22.8988 20.8689 22.6354 21.5047 22.1665 21.9736C21.6977 22.4424 21.0618 22.7058 20.3988 22.7058C19.7357 22.7058 19.0998 22.4424 18.631 21.9736C18.1621 21.5047 17.8988 20.8689 17.8988 20.2058C17.8988 19.5428 18.1621 18.9069 18.631 18.438C19.0998 17.9692 19.7357 17.7058 20.3988 17.7058ZM23.125 12.4796C23.6223 12.4796 24.0992 12.6771 24.4508 13.0287C24.8025 13.3804 25 13.8573 25 14.3546C25 14.8518 24.8025 15.3288 24.4508 15.6804C24.0992 16.032 23.6223 16.2296 23.125 16.2296C22.6277 16.2296 22.1508 16.032 21.7992 15.6804C21.4475 15.3288 21.25 14.8518 21.25 14.3546C21.25 13.8573 21.4475 13.3804 21.7992 13.0287C22.1508 12.6771 22.6277 12.4796 23.125 12.4796ZM3.125 8.33081C3.9538 8.33081 4.74866 8.66005 5.33471 9.2461C5.92076 9.83215 6.25 10.627 6.25 11.4558C6.25 12.2846 5.92076 13.0795 5.33471 13.6655C4.74866 14.2516 3.9538 14.5808 3.125 14.5808C2.2962 14.5808 1.50134 14.2516 0.915291 13.6655C0.32924 13.0795 0 12.2846 0 11.4558C0 10.627 0.32924 9.83215 0.915291 9.2461C1.50134 8.66005 2.2962 8.33081 3.125 8.33081ZM22.2325 7.33956C22.564 7.33956 22.882 7.47126 23.1164 7.70568C23.3508 7.9401 23.4825 8.25804 23.4825 8.58956C23.4825 8.92108 23.3508 9.23902 23.1164 9.47344C22.882 9.70786 22.564 9.83956 22.2325 9.83956C21.901 9.83956 21.583 9.70786 21.3486 9.47344C21.1142 9.23902 20.9825 8.92108 20.9825 8.58956C20.9825 8.25804 21.1142 7.9401 21.3486 7.70568C21.583 7.47126 21.901 7.33956 22.2325 7.33956ZM10 0.830811C10.9946 0.830811 11.9484 1.2259 12.6517 1.92916C13.3549 2.63242 13.75 3.58625 13.75 4.58081C13.75 5.57537 13.3549 6.5292 12.6517 7.23246C11.9484 7.93572 10.9946 8.33081 10 8.33081C9.00544 8.33081 8.05161 7.93572 7.34835 7.23246C6.64509 6.5292 6.25 5.57537 6.25 4.58081C6.25 3.58625 6.64509 2.63242 7.34835 1.92916C8.05161 1.2259 9.00544 0.830811 10 0.830811ZM19.375 4.58081C19.5408 4.58081 19.6997 4.64666 19.8169 4.76387C19.9342 4.88108 20 5.04005 20 5.20581C20 5.37157 19.9342 5.53054 19.8169 5.64775C19.6997 5.76496 19.5408 5.83081 19.375 5.83081C19.2092 5.83081 19.0503 5.76496 18.9331 5.64775C18.8158 5.53054 18.75 5.37157 18.75 5.20581C18.75 5.04005 18.8158 4.88108 18.9331 4.76387C19.0503 4.64666 19.2092 4.58081 19.375 4.58081Z" fill="#C22A1D"/>
</svg>
