<svg width="19" height="24" viewBox="0 0 19 24" fill="none" xmlns="http://www.w3.org/2000/svg">
<path d="M9.50025 0.874512L0.125244 5.04118V11.2912C0.125244 17.0724 4.12524 22.4787 9.50025 23.7912C14.8752 22.4787 18.8752 17.0724 18.8752 11.2912V5.04118L9.50025 0.874512ZM9.50025 5.04118C10.329 5.04118 11.1239 5.37042 11.71 5.95647C12.296 6.54252 12.6252 7.33738 12.6252 8.16618C12.6252 8.99498 12.296 9.78984 11.71 10.3759C11.1239 10.9619 10.329 11.2912 9.50025 11.2912C8.67144 11.2912 7.87659 10.9619 7.29054 10.3759C6.70448 9.78984 6.37524 8.99498 6.37524 8.16618C6.37524 7.33738 6.70448 6.54252 7.29054 5.95647C7.87659 5.37042 8.67144 5.04118 9.50025 5.04118ZM14.844 17.5412C13.5819 19.4731 11.6959 20.9143 9.50025 21.6245C7.30459 20.9143 5.4186 19.4731 4.15649 17.5412C3.80233 17.0203 3.50024 16.4995 3.25024 15.9474C3.25024 14.2287 6.07316 12.8224 9.50025 12.8224C12.9273 12.8224 15.7502 14.1974 15.7502 15.9474C15.5002 16.4995 15.1982 17.0203 14.844 17.5412Z" fill="#C22A1D"/>
</svg>
