<svg width="19" height="20" viewBox="0 0 19 20" fill="none" xmlns="http://www.w3.org/2000/svg">
<path d="M15.75 11.764H11.5833V15.9307H7.41667V11.764H3.25V7.59733H7.41667V3.43066H11.5833V7.59733H15.75M16.7917 0.305664H2.20833C1.05208 0.305664 0.125 1.23275 0.125 2.389V16.9723C0.125 17.5249 0.344493 18.0548 0.735194 18.4455C1.12589 18.8362 1.6558 19.0557 2.20833 19.0557H16.7917C17.3442 19.0557 17.8741 18.8362 18.2648 18.4455C18.6555 18.0548 18.875 17.5249 18.875 16.9723V2.389C18.875 1.83646 18.6555 1.30656 18.2648 0.915858C17.8741 0.525157 17.3442 0.305664 16.7917 0.305664Z" fill="#C22A1D"/>
</svg>
