<svg width="21" height="21" viewBox="0 0 21 21" fill="none" xmlns="http://www.w3.org/2000/svg">
<path d="M4.25004 4.51408C4.25004 2.212 6.11462 0.347412 8.41671 0.347412C10.7188 0.347412 12.5834 2.212 12.5834 4.51408C12.5834 6.81616 10.7188 8.68075 8.41671 8.68075C6.11462 8.68075 4.25004 6.81616 4.25004 4.51408ZM10.5 15.1391C10.5 14.1391 11.0209 13.2016 11.75 12.5766V12.3266C11.75 11.9203 11.823 11.5349 11.9375 11.1599C10.8646 10.9099 9.67712 10.7641 8.41671 10.7641C3.81254 10.7641 0.083374 12.6287 0.083374 14.9307V17.0141H10.5V15.1391ZM20.9167 15.2432V18.8891C20.9167 19.5141 20.2917 20.1391 19.5625 20.1391H13.8334C13.2084 20.1391 12.5834 19.5141 12.5834 18.7849V15.1391C12.5834 14.5141 13.2084 13.8891 13.8334 13.8891V12.3266C13.8334 10.8682 15.2917 9.72241 16.75 9.72241C18.2084 9.72241 19.6667 10.8682 19.6667 12.3266V13.8891C20.2917 13.8891 20.9167 14.5141 20.9167 15.2432ZM18.3125 12.3266C18.3125 11.4932 17.5834 10.9724 16.75 10.9724C15.9167 10.9724 15.1875 11.4932 15.1875 12.3266V13.8891H18.3125V12.3266Z" fill="#C22A1D"/>
</svg>
