<svg width="19" height="18" viewBox="0 0 19 18" fill="none" xmlns="http://www.w3.org/2000/svg">
<path d="M0.125 8.68075C0.125 10.9828 1.07292 13.0557 2.58333 14.5557L0.125 17.0141H6.375V10.7641L4.04167 13.0974C2.86952 11.9262 2.21013 10.3377 2.20833 8.68075C2.20829 7.38914 2.60907 6.12934 3.35538 5.07518C4.10169 4.02101 5.15675 3.22443 6.375 2.79533V0.618246C2.78125 1.54533 0.125 4.79533 0.125 8.68075ZM8.45833 13.8891H10.5417V11.8057H8.45833V13.8891ZM18.875 0.347412H12.625V6.59741L14.9583 4.26408C16.1305 5.43525 16.7899 7.02377 16.7917 8.68075C16.7917 9.97235 16.3909 11.2321 15.6446 12.2863C14.8983 13.3405 13.8432 14.1371 12.625 14.5662V16.7432C16.2188 15.8162 18.875 12.5662 18.875 8.68075C18.875 6.37866 17.9271 4.30575 16.4167 2.80575L18.875 0.347412ZM8.45833 9.72241H10.5417V3.47241H8.45833V9.72241Z" fill="#C22A1D"/>
</svg>
