<svg width="191" height="50" viewBox="0 0 191 50" fill="none" xmlns="http://www.w3.org/2000/svg">
<g clip-path="url(#clip0_173_574)">
<path d="M13.8498 0L7.73852 3.38473L14.3198 4.32493L14.2258 11.5645L20.3371 8.27378L20.4312 0.940254L13.8498 0Z" fill="#500B06"/>
<path d="M7.1743 6.29931L1.06299 9.68404L7.6444 10.6242L13.7557 7.33353L7.1743 6.29931Z" fill="#500B06"/>
<path d="M20.3371 8.27378L14.2258 11.5645L14.1322 18.8981L20.2435 15.5134L20.3371 8.27378Z" fill="#500B06"/>
<path d="M14.3198 4.32497L14.2258 11.5645L14.1318 18.8981L7.55038 17.9579L1.06299 17.0177V9.68412L7.6444 10.6243L7.73842 3.38477L14.3198 4.32497Z" fill="#C22A1D"/>
<path d="M32.6538 2.8208L26.4485 6.20553L33.0299 7.14573L39.1412 3.85502L32.6538 2.8208Z" fill="#500B06"/>
<path d="M39.1412 3.85502L33.0299 7.14573L32.9363 14.4794L39.5176 15.4196L39.4236 22.7531L45.6289 19.3684V12.0348L39.1416 11.0947L39.1412 3.85502Z" fill="#500B06"/>
<path d="M33.0302 7.14577L32.9362 14.4793L39.5176 15.4195L39.4235 22.7531L32.9362 21.7189L26.3547 20.7787L26.4488 13.5391V6.20557L33.0302 7.14577Z" fill="#C22A1D"/>
<path d="M32.2778 28.3003L26.1665 31.591L32.7479 32.5312L39.3292 33.5654L39.2352 40.805L45.3465 37.5143L45.4406 30.1807L32.2778 28.3003Z" fill="#500B06"/>
<path d="M38.765 36.5739L32.6537 39.8646L32.5597 47.1982L38.671 43.8134L38.765 36.5739Z" fill="#500B06"/>
<path d="M39.3291 33.5652L39.2351 40.8048L32.6537 39.8646L32.5597 47.1982L25.9783 46.258L26.0723 38.9244L26.1663 31.5908L32.7477 32.531L39.3291 33.5652Z" fill="#C22A1D"/>
<path d="M6.98631 24.4453L0.875 27.83L14.0377 29.7104L13.8496 44.2836L19.9609 40.9929L20.1491 26.3257L6.98631 24.4453Z" fill="#500B06"/>
<path d="M14.0379 29.7105L13.9438 37.0441L13.8498 44.2836L7.2684 43.3434L7.36242 36.1039L0.781006 35.0696L0.875026 27.8301L7.45644 28.7703L14.0379 29.7105Z" fill="#C22A1D"/>
</g>
<path d="M62.3977 15.2709H64.1371V31.7245H62.3977V15.2709Z" fill="#181818"/>
<path d="M89.5874 15.2709V31.7245H88.1536L77.5763 18.3736V31.7245H75.8369V15.2709H77.2707L87.8715 28.6218V15.2709H89.5874Z" fill="#181818"/>
<path d="M114.8 15.2709L107.514 31.7245H105.798L98.5114 15.2709H100.392L106.691 29.562L113.038 15.2709H114.8Z" fill="#181818"/>
<path d="M135.17 30.2201V31.7245H123.535V15.2709H134.817V16.7752H125.274V22.628H133.783V24.1088H125.274V30.2201H135.17Z" fill="#181818"/>
<path d="M162.693 15.2709V31.7245H161.024V18.5616L154.56 29.6325H153.737L147.274 18.6321V31.7245H145.605V15.2709H147.038L154.184 27.47L161.259 15.2709H162.693Z" fill="#181818"/>
<path d="M181.593 31.8655C179.963 31.8655 178.482 31.5051 177.15 30.7843C175.834 30.0478 174.8 29.0449 174.048 27.7756C173.311 26.5063 172.943 25.0804 172.943 23.4977C172.943 21.915 173.311 20.489 174.048 19.2198C174.8 17.9505 175.834 16.9554 177.15 16.2346C178.482 15.4981 179.963 15.1299 181.593 15.1299C183.222 15.1299 184.688 15.4903 185.988 16.2111C187.304 16.9319 188.339 17.9348 189.091 19.2198C189.843 20.489 190.219 21.915 190.219 23.4977C190.219 25.0804 189.843 26.5142 189.091 27.7991C188.339 29.0684 187.304 30.0634 185.988 30.7843C184.688 31.5051 183.222 31.8655 181.593 31.8655ZM181.593 30.3141C182.893 30.3141 184.069 30.0243 185.119 29.4445C186.168 28.849 186.991 28.0342 187.587 26.9999C188.182 25.95 188.48 24.7826 188.48 23.4977C188.48 22.2127 188.182 21.0532 187.587 20.0189C186.991 18.969 186.168 18.1542 185.119 17.5744C184.069 16.9789 182.893 16.6812 181.593 16.6812C180.292 16.6812 179.109 16.9789 178.044 17.5744C176.994 18.1542 176.163 18.969 175.552 20.0189C174.957 21.0532 174.659 22.2127 174.659 23.4977C174.659 24.7826 174.957 25.95 175.552 26.9999C176.163 28.0342 176.994 28.849 178.044 29.4445C179.109 30.0243 180.292 30.3141 181.593 30.3141Z" fill="#181818"/>
<defs>
<clipPath id="clip0_173_574">
<rect width="46.0699" height="49.8307" fill="white" transform="translate(0.781006)"/>
</clipPath>
</defs>
</svg>
